<svg xmlns="http://www.w3.org/2000/svg" version="1.1" xmlns:xlink="http://www.w3.org/1999/xlink" xmlns:svgjs="http://svgjs.dev/svgjs" width="2000" height="2000" viewBox="0 0 2000 2000"><g transform="matrix(1,0,0,1,0,0.000011022850117115013)"><svg viewBox="0 0 280 280" data-background-color="#ffffff" preserveAspectRatio="xMidYMid meet" height="2000" width="2000" xmlns="http://www.w3.org/2000/svg" xmlns:xlink="http://www.w3.org/1999/xlink"><g id="tight-bounds" transform="matrix(1,0,0,1,0,-0.000001543199005027418)"><svg viewBox="0 0 280 280" height="280" width="280"><g><svg viewBox="0 0 280 280" height="280" width="280"><g><svg viewBox="0 0 280 280" height="280" width="280"><g id="textblocktransform"><svg viewBox="0 0 280 280" height="280" width="280" id="textblock"><g><svg viewBox="0 0 280 280" height="280" width="280"><g transform="matrix(1,0,0,1,64.76383848175135,82.96613562326311)"><svg viewBox="0 0 150.4723230364973 114.06772875347376" height="114.06772875347376" width="150.4723230364973"><g id="icon-0"><svg xmlns="http://www.w3.org/2000/svg" xmlns:xlink="http://www.w3.org/1999/xlink" version="1.1" x="0" y="0" viewBox="1 9 62 47" style="enable-background:new 0 0 64 64;" xml:space="preserve" height="114.06772875347376" width="150.4723230364973" class="icon-xg-0" data-fill-palette-color="accent" id="xg-0"></svg></g></svg></g><g id="text-0"><path d="M22.003 108.51l-0.902 2.631-14.358-11.864c-0.621-0.518-1.01-1.076-1.168-1.675-0.164-0.601-0.136-1.223 0.085-1.866v0c0.221-0.643 0.575-1.157 1.063-1.541 0.494-0.382 1.14-0.582 1.937-0.599v0l18.652-0.56-0.939 2.738-4.949 0.077-3.27 9.53zM8.32 97.411l7.89 6.432 2.744-8-10.149 0.155c-0.259 0.013-0.467 0.05-0.627 0.112-0.159 0.062-0.271 0.187-0.335 0.375v0c-0.06 0.175-0.046 0.336 0.041 0.482 0.088 0.146 0.233 0.294 0.436 0.444z" fill="#03424c" data-fill-palette-color="primary"></path><path d="M32.875 81.711l-4.455 9.013-2.097-1.036 1.648-3.334-13.086-6.469-1.648 3.334-2.096-1.036 4.456-9.014 2.096 1.036-1.639 3.316 13.086 6.469 1.639-3.316z" fill="#03424c" data-fill-palette-color="primary"></path><path d="M42.087 67.629l-4.164 6.287c-0.588 0.887-1.319 1.532-2.195 1.932-0.869 0.404-1.775 0.571-2.715 0.499-0.947-0.075-1.824-0.38-2.632-0.915v0c-0.739-0.489-1.315-1.118-1.728-1.886-0.41-0.774-0.58-1.612-0.51-2.513v0c-0.841 0.374-1.679 0.527-2.516 0.459-0.833-0.074-1.587-0.334-2.263-0.782v0c-0.824-0.546-1.446-1.238-1.863-2.075-0.412-0.833-0.597-1.722-0.556-2.667 0.037-0.939 0.325-1.815 0.863-2.628v0l4.21-6.355 1.95 1.291-4.045 6.106c-0.315 0.475-0.479 0.972-0.493 1.49-0.014 0.518 0.098 1.008 0.336 1.471 0.228 0.464 0.58 0.854 1.055 1.168v0c0.447 0.296 0.927 0.453 1.441 0.473 0.514 0.019 1.01-0.089 1.488-0.324 0.468-0.234 0.855-0.583 1.163-1.047v0l3.447-5.204 1.958 1.297-3.345 5.05c-0.375 0.567-0.57 1.134-0.583 1.702-0.017 0.573 0.103 1.106 0.361 1.599 0.259 0.493 0.617 0.891 1.075 1.194v0c0.458 0.303 0.957 0.477 1.496 0.521 0.541 0.054 1.062-0.042 1.562-0.288 0.502-0.236 0.932-0.623 1.288-1.16v0l3.966-5.987z" fill="#03424c" data-fill-palette-color="primary"></path><path d="M46.173 62.895l-1.875 2.123-1.657-7.896c-0.794 0.453-1.616 0.74-2.464 0.86-0.854 0.116-1.689 0.061-2.507-0.166-0.821-0.222-1.554-0.617-2.197-1.185v0l-1.405-1.242 1.692-1.914 1.405 1.241c0.504 0.446 1.086 0.726 1.745 0.841 0.659 0.115 1.313 0.07 1.962-0.136 0.654-0.211 1.239-0.541 1.756-0.992v0l-1.527-6.999 1.862-2.108 1.611 7.527c0.838-0.534 1.703-0.869 2.594-1.007 0.892-0.128 1.764-0.073 2.616 0.167 0.852 0.239 1.63 0.67 2.335 1.293v0l1.421 1.255-1.678 1.9-1.421-1.256c-0.551-0.487-1.17-0.791-1.859-0.914-0.693-0.118-1.388-0.067-2.085 0.151-0.692 0.213-1.333 0.601-1.921 1.163v0z" fill="#03424c" data-fill-palette-color="primary"></path><path d="M52.953 36.11v0c-1.038 0.879-1.782 1.891-2.234 3.037-0.441 1.147-0.548 2.35-0.321 3.607 0.237 1.257 0.859 2.481 1.866 3.67v0l8.4 9.923 1.934-1.637-5.531-6.534 0.039-0.033c0.609 0.231 1.241 0.344 1.894 0.34 0.663-0.003 1.319-0.127 1.968-0.37 0.653-0.238 1.252-0.588 1.798-1.05v0c0.996-0.843 1.696-1.818 2.099-2.925 0.405-1.116 0.489-2.276 0.253-3.48-0.241-1.209-0.836-2.374-1.786-3.496v0c-0.745-0.881-1.554-1.559-2.425-2.036-0.872-0.477-1.767-0.758-2.686-0.845-0.919-0.086-1.824 0.024-2.717 0.33-0.888 0.311-1.739 0.811-2.551 1.499zM54.357 37.769v0c0.655-0.555 1.388-0.901 2.199-1.038 0.815-0.132 1.634-0.042 2.455 0.269 0.817 0.316 1.569 0.881 2.257 1.694v0c0.666 0.786 1.09 1.606 1.272 2.459 0.187 0.859 0.155 1.682-0.095 2.47-0.245 0.784-0.706 1.462-1.383 2.034v0c-0.655 0.555-1.39 0.898-2.205 1.03-0.811 0.137-1.626 0.04-2.446-0.291-0.816-0.326-1.568-0.895-2.256-1.708v0c-0.679-0.802-1.11-1.63-1.292-2.482-0.182-0.853-0.141-1.671 0.123-2.454 0.269-0.777 0.726-1.438 1.371-1.983z" fill="#03424c" data-fill-palette-color="primary"></path><path d="M73.511 38.687l-2.119 1.39-5.515-8.407c-0.682-1.039-0.921-2.049-0.718-3.028 0.203-0.979 0.828-1.812 1.873-2.498v0l2.412-1.582 1.192 1.818-2.024 1.328c-0.505 0.332-0.805 0.738-0.901 1.219-0.089 0.477 0.036 0.975 0.375 1.491v0z" fill="#03424c" data-fill-palette-color="primary"></path><path d="M89.888 29.785l-3.223 1.639c-1.371 0.698-2.72 1.06-4.046 1.088-1.327 0.028-2.527-0.279-3.6-0.92-1.079-0.638-1.94-1.587-2.582-2.847v0c-0.632-1.243-0.945-2.486-0.938-3.73 0.004-1.25 0.309-2.392 0.917-3.425 0.61-1.027 1.512-1.844 2.705-2.451v0c1.292-0.657 2.511-0.927 3.658-0.809 1.137 0.115 2.157 0.536 3.058 1.264 0.908 0.725 1.658 1.669 2.25 2.832v0c0.09 0.178 0.182 0.366 0.275 0.565 0.087 0.202 0.153 0.384 0.198 0.547v0l-9.329 4.745c0.478 0.728 1.064 1.25 1.757 1.568 0.699 0.315 1.448 0.438 2.246 0.372 0.798-0.067 1.598-0.304 2.4-0.713v0l3.269-1.663zM78.404 26.704v0l7.135-3.629c-0.159-0.312-0.359-0.63-0.601-0.954-0.245-0.315-0.535-0.598-0.872-0.851-0.33-0.256-0.702-0.448-1.114-0.578-0.406-0.132-0.851-0.18-1.333-0.143-0.485 0.046-0.997 0.207-1.535 0.481v0c-0.569 0.29-1.015 0.655-1.338 1.097-0.323 0.441-0.546 0.925-0.672 1.451-0.125 0.526-0.151 1.059-0.076 1.599 0.068 0.543 0.204 1.052 0.406 1.527z" fill="#03424c" data-fill-palette-color="primary"></path><path d="M101.901 25.241l-6.624 2.341-0.724-2.05 6.343-2.241c0.414-0.146 0.742-0.364 0.982-0.653 0.234-0.287 0.376-0.606 0.426-0.959 0.052-0.346 0.02-0.685-0.097-1.015v0c-0.11-0.311-0.281-0.578-0.513-0.802-0.23-0.217-0.516-0.357-0.857-0.418-0.351-0.065-0.724-0.028-1.119 0.111v0l-2.671 0.944c-0.848 0.3-1.64 0.419-2.376 0.359-0.729-0.063-1.369-0.307-1.919-0.732-0.553-0.431-0.97-1.045-1.251-1.841v0c-0.238-0.673-0.292-1.353-0.164-2.04 0.127-0.693 0.42-1.317 0.879-1.873 0.463-0.564 1.077-0.982 1.841-1.251v0l6.1-2.155 0.724 2.049-5.867 2.073c-0.537 0.19-0.903 0.505-1.097 0.945-0.194 0.44-0.212 0.884-0.054 1.33v0c0.153 0.434 0.445 0.753 0.874 0.959 0.438 0.209 0.952 0.21 1.541 0.001v0l2.545-0.899c0.952-0.336 1.805-0.467 2.56-0.391 0.753 0.069 1.399 0.332 1.94 0.79 0.538 0.451 0.954 1.091 1.246 1.919v0c0.252 0.712 0.313 1.433 0.186 2.164-0.132 0.739-0.435 1.407-0.909 2.004-0.48 0.599-1.128 1.043-1.945 1.331z" fill="#03424c" data-fill-palette-color="primary"></path><path d="M116.998 21.353l-6.868 1.48-0.458-2.125 6.576-1.417c0.43-0.093 0.782-0.267 1.057-0.523 0.268-0.255 0.45-0.554 0.544-0.897 0.096-0.337 0.107-0.676 0.034-1.019v0c-0.069-0.322-0.205-0.609-0.407-0.861-0.2-0.245-0.466-0.419-0.798-0.524-0.34-0.109-0.714-0.12-1.124-0.031v0l-2.769 0.597c-0.879 0.19-1.68 0.208-2.402 0.053-0.715-0.155-1.318-0.478-1.811-0.969-0.494-0.498-0.83-1.16-1.007-1.985v0c-0.15-0.698-0.118-1.38 0.097-2.044 0.214-0.671 0.583-1.253 1.109-1.746 0.531-0.501 1.193-0.837 1.986-1.008v0l6.324-1.363 0.458 2.125-6.083 1.311c-0.557 0.12-0.96 0.386-1.208 0.798-0.248 0.412-0.323 0.849-0.223 1.312v0c0.097 0.45 0.345 0.804 0.745 1.062 0.408 0.263 0.918 0.329 1.529 0.198v0l2.638-0.569c0.987-0.213 1.85-0.234 2.589-0.063 0.738 0.164 1.346 0.507 1.824 1.03 0.476 0.516 0.807 1.203 0.993 2.062v0c0.159 0.739 0.129 1.462-0.091 2.17-0.225 0.716-0.61 1.34-1.156 1.872-0.552 0.534-1.252 0.892-2.098 1.073z" fill="#03424c" data-fill-palette-color="primary"></path><path d="M142.979 19.284l-8.643 0.018-0.005-2.338 8.344-0.018c0.646-0.001 1.195-0.154 1.647-0.457 0.459-0.303 0.819-0.695 1.08-1.177 0.253-0.474 0.379-0.979 0.377-1.515v0c-0.001-0.549-0.126-1.057-0.374-1.524-0.248-0.466-0.599-0.843-1.053-1.131-0.447-0.281-0.993-0.42-1.639-0.419v0l-3.626 0.008c-1.085 0.002-2.04-0.222-2.865-0.673-0.832-0.445-1.482-1.068-1.951-1.871-0.469-0.796-0.704-1.698-0.707-2.708v0c-0.002-1.03 0.219-1.958 0.664-2.783 0.451-0.825 1.085-1.479 1.901-1.961 0.816-0.476 1.757-0.715 2.821-0.717v0l8.18-0.018 0.005 2.338-7.932 0.018c-0.604 0.001-1.136 0.147-1.596 0.436-0.46 0.283-0.809 0.647-1.049 1.094-0.233 0.454-0.348 0.938-0.347 1.453v0c0.001 0.494 0.115 0.965 0.343 1.411 0.228 0.453 0.568 0.816 1.023 1.09 0.447 0.274 0.966 0.41 1.556 0.409v0l3.719-0.009c1.154-0.003 2.143 0.225 2.968 0.684 0.832 0.458 1.469 1.082 1.91 1.871 0.441 0.789 0.663 1.688 0.665 2.698v0c0.002 1.119-0.219 2.116-0.663 2.988-0.451 0.873-1.089 1.558-1.911 2.055-0.83 0.496-1.777 0.746-2.842 0.748z" fill="#03424c" data-fill-palette-color="primary"></path><path d="M159.037 21.049v0c-1.251-0.176-2.337-0.592-3.258-1.249-0.92-0.657-1.59-1.489-2.01-2.499-0.428-1.003-0.554-2.124-0.38-3.361v0l1.13-8.039 2.54 0.357-1.127 8.019c-0.118 0.837-0.039 1.583 0.236 2.238 0.281 0.664 0.701 1.201 1.261 1.613 0.566 0.413 1.193 0.667 1.88 0.764v0c0.714 0.1 1.397 0.03 2.048-0.211 0.658-0.24 1.214-0.641 1.667-1.202 0.459-0.553 0.748-1.247 0.865-2.083v0l1.128-8.019 2.54 0.358-1.131 8.038c-0.174 1.238-0.608 2.279-1.303 3.125-0.696 0.852-1.569 1.468-2.621 1.847-1.059 0.378-2.214 0.479-3.465 0.304z" fill="#03424c" data-fill-palette-color="primary"></path><path d="M172.527 23.783l-2.402-0.808 2.696-8.016c0.344-1.022 0.893-1.881 1.649-2.576 0.755-0.695 1.664-1.147 2.727-1.354 1.054-0.204 2.209-0.094 3.465 0.328v0c0.605 0.204 1.187 0.49 1.744 0.858 0.551 0.366 1.02 0.836 1.407 1.408 0.396 0.568 0.64 1.233 0.731 1.996v0l0.019 0.006c0.573-0.539 1.185-0.917 1.837-1.132 0.654-0.222 1.315-0.311 1.982-0.268 0.66 0.041 1.306 0.167 1.937 0.38v0c1.23 0.414 2.207 1.021 2.93 1.822 0.715 0.805 1.163 1.713 1.345 2.724 0.182 1.01 0.101 2.027-0.243 3.048v0l-2.695 8.017-2.403-0.808 2.696-8.016c0.221-0.657 0.266-1.309 0.136-1.955-0.131-0.645-0.407-1.213-0.83-1.702-0.429-0.492-0.982-0.852-1.658-1.08v0c-0.664-0.223-1.326-0.268-1.987-0.135-0.669 0.137-1.252 0.416-1.748 0.835-0.505 0.424-0.868 0.965-1.089 1.623v0l-2.696 8.017-2.402-0.808 2.696-8.017c0.221-0.657 0.262-1.307 0.122-1.947-0.142-0.635-0.434-1.208-0.878-1.72-0.44-0.503-0.998-0.868-1.675-1.095v0c-0.664-0.223-1.312-0.267-1.945-0.133-0.639 0.133-1.205 0.417-1.699 0.853-0.494 0.435-0.852 0.982-1.073 1.639v0z" fill="#03424c" data-fill-palette-color="primary"></path><path d="M197.658 33.808l-2.167-1.316 4.39-7.229c0.56-0.922 1.284-1.639 2.173-2.151 0.89-0.512 1.876-0.753 2.958-0.723 1.073 0.033 2.176 0.393 3.309 1.081v0c0.546 0.331 1.05 0.738 1.513 1.22 0.457 0.478 0.811 1.039 1.064 1.682 0.262 0.641 0.353 1.343 0.275 2.107v0l0.018 0.011c0.677-0.4 1.357-0.634 2.04-0.701 0.687-0.073 1.351-0.015 1.992 0.173 0.635 0.185 1.237 0.45 1.807 0.795v0c1.11 0.674 1.929 1.481 2.459 2.421 0.52 0.943 0.758 1.927 0.714 2.953-0.044 1.026-0.346 1.999-0.905 2.921v0l-4.39 7.229-2.166-1.315 4.389-7.23c0.36-0.593 0.547-1.219 0.561-1.876 0.014-0.658-0.131-1.273-0.435-1.844-0.31-0.574-0.771-1.046-1.381-1.417v0c-0.599-0.364-1.235-0.553-1.909-0.568-0.683-0.013-1.313 0.131-1.889 0.432-0.586 0.303-1.059 0.751-1.419 1.344v0l-4.389 7.229-2.167-1.315 4.39-7.229c0.36-0.593 0.542-1.217 0.547-1.874 0.001-0.65-0.159-1.273-0.48-1.87-0.318-0.587-0.783-1.066-1.393-1.436v0c-0.599-0.364-1.221-0.549-1.868-0.556-0.652-0.01-1.268 0.142-1.846 0.459-0.578 0.316-1.046 0.771-1.406 1.363v0z" fill="#03424c" data-fill-palette-color="primary"></path><path d="M222.464 51.612v0c-1.008-0.912-1.66-1.942-1.955-3.09-0.301-1.152-0.271-2.32 0.088-3.505 0.354-1.189 0.987-2.288 1.9-3.297v0c0.922-1.018 1.975-1.742 3.159-2.17 1.179-0.433 2.396-0.518 3.648-0.255 1.253 0.254 2.452 0.899 3.598 1.936v0c1.1 0.995 1.83 2.087 2.191 3.275 0.356 1.193 0.379 2.39 0.069 3.592-0.309 1.212-0.918 2.319-1.825 3.322v0l-4.77 5.27-1.902-1.721 1.922-2.123-0.038-0.035c-0.563 0.213-1.182 0.338-1.856 0.377-0.673 0.048-1.373-0.043-2.1-0.275-0.727-0.241-1.436-0.675-2.129-1.301zM224.412 50.443v0c0.682 0.618 1.438 0.996 2.266 1.134 0.819 0.139 1.643 0.047 2.474-0.277 0.829-0.333 1.576-0.866 2.239-1.599v0c0.654-0.723 1.102-1.494 1.344-2.314 0.236-0.824 0.247-1.639 0.031-2.444-0.215-0.796-0.671-1.51-1.369-2.142v0c-0.733-0.664-1.516-1.062-2.349-1.196-0.833-0.134-1.65-0.039-2.451 0.283-0.8 0.332-1.532 0.864-2.196 1.597v0c-0.641 0.708-1.089 1.474-1.345 2.299-0.251 0.82-0.271 1.635-0.06 2.446 0.211 0.811 0.683 1.549 1.416 2.213z" fill="#03424c" data-fill-palette-color="primary"></path><path d="M233.56 62.415l-1.656-1.919 7.611-6.57c0.941-0.812 1.91-1.182 2.908-1.109 0.998 0.073 1.905 0.583 2.722 1.529v0l1.885 2.184-1.646 1.42-1.582-1.833c-0.395-0.457-0.837-0.702-1.326-0.732-0.485-0.026-0.961 0.163-1.43 0.567v0z" fill="#03424c" data-fill-palette-color="primary"></path><path d="M240.194 70.857l-1.531-2.058 11.265-8.383 1.531 2.058zM252.496 60.123v0c-0.275-0.369-0.38-0.792-0.315-1.268 0.075-0.475 0.294-0.848 0.658-1.119v0c0.369-0.275 0.792-0.38 1.268-0.314 0.475 0.075 0.85 0.296 1.124 0.665v0c0.275 0.369 0.378 0.789 0.309 1.26-0.075 0.475-0.296 0.85-0.666 1.125v0c-0.364 0.271-0.784 0.373-1.26 0.308-0.471-0.069-0.844-0.288-1.118-0.657z" fill="#03424c" data-fill-palette-color="primary"></path><path d="M248.431 84.164l-4.276-7.093c-0.305-0.506-0.459-1.027-0.46-1.563-0.002-0.536 0.129-1.036 0.394-1.501 0.268-0.474 0.637-0.853 1.107-1.136v0c0.5-0.301 1.017-0.448 1.551-0.442 0.531 0.017 1.097 0.164 1.698 0.444v0l6.852 3.424c0.283 0.15 0.516 0.218 0.7 0.203 0.184-0.015 0.355-0.07 0.513-0.165v0c0.188-0.113 0.319-0.296 0.392-0.548 0.069-0.258 0.027-0.514-0.126-0.767v0l-3.68-6.105 1.862-1.122 4.079 6.767c0.294 0.488 0.439 0.994 0.434 1.518-0.001 0.53-0.135 1.027-0.4 1.492-0.262 0.47-0.628 0.848-1.098 1.131v0c-0.488 0.294-1.005 0.441-1.55 0.442-0.555-0.002-1.116-0.141-1.683-0.417v0l-6.86-3.419c-0.283-0.15-0.516-0.218-0.7-0.204-0.184 0.015-0.355 0.07-0.514 0.166v0c-0.188 0.113-0.319 0.296-0.391 0.548-0.069 0.258-0.024 0.519 0.136 0.784v0l3.882 6.441z" fill="#03424c" data-fill-palette-color="primary"></path><path d="M254.793 98.342l-1.449-3.312c-0.617-1.409-0.9-2.777-0.851-4.104 0.05-1.326 0.425-2.506 1.127-3.54 0.699-1.041 1.697-1.844 2.993-2.412v0c1.277-0.559 2.537-0.799 3.778-0.719 1.248 0.076 2.37 0.447 3.366 1.113 0.99 0.669 1.753 1.617 2.29 2.844v0c0.581 1.328 0.779 2.56 0.595 3.698-0.181 1.129-0.661 2.122-1.44 2.98-0.776 0.864-1.762 1.558-2.957 2.081v0c-0.182 0.08-0.376 0.161-0.58 0.242-0.207 0.076-0.393 0.131-0.558 0.166v0l-4.195-9.589c-0.754 0.435-1.31 0.989-1.668 1.663-0.355 0.68-0.522 1.42-0.501 2.221 0.02 0.801 0.211 1.613 0.572 2.437v0l1.47 3.36zM258.536 87.057v0l3.209 7.333c0.321-0.14 0.65-0.322 0.987-0.545 0.328-0.226 0.628-0.5 0.9-0.821 0.274-0.315 0.488-0.675 0.642-1.079 0.156-0.398 0.229-0.839 0.22-1.322-0.018-0.487-0.148-1.007-0.391-1.561v0c-0.256-0.585-0.595-1.052-1.017-1.399-0.422-0.348-0.892-0.599-1.41-0.755-0.518-0.156-1.049-0.212-1.592-0.169-0.546 0.037-1.062 0.142-1.548 0.318z" fill="#03424c" data-fill-palette-color="primary"></path><path d="M257.536 106.497l-0.75-2.42 9.603-2.978c1.187-0.368 2.224-0.319 3.109 0.147 0.885 0.466 1.513 1.296 1.883 2.49v0l0.854 2.755-2.076 0.644-0.717-2.313c-0.179-0.577-0.487-0.978-0.923-1.202-0.434-0.218-0.947-0.235-1.537-0.052v0z" fill="#03424c" data-fill-palette-color="primary"></path><path d="M2.675 142.663c0-4.153 3.367-7.521 7.521-7.521 4.153 0 7.521 3.367 7.52 7.521 0 4.153-3.367 7.521-7.52 7.52-4.153 0-7.521-3.367-7.521-7.52z" fill="#03424c" data-fill-palette-color="primary"></path><path d="M262.284 142.663c0-4.153 3.367-7.521 7.52-7.521 4.153 0 7.521 3.367 7.521 7.521 0 4.153-3.367 7.521-7.521 7.52-4.153 0-7.521-3.367-7.52-7.52z" fill="#03424c" data-fill-palette-color="primary"></path></g><g id="text-1"><path d="M8.788 181.311l-0.89-2.603 18.382 0.55c0.797 0.039 1.441 0.244 1.93 0.614 0.489 0.37 0.842 0.87 1.057 1.5v0c0.218 0.637 0.254 1.252 0.109 1.846-0.152 0.596-0.537 1.146-1.156 1.648v0l-14.204 11.728-0.923-2.7 3.81-3.056-3.22-9.416zM26.185 181.686l-10.056-0.241 2.701 7.896 7.828-6.271c0.199-0.162 0.339-0.315 0.42-0.46 0.088-0.146 0.1-0.314 0.035-0.502v0c-0.058-0.169-0.166-0.284-0.325-0.346-0.153-0.064-0.354-0.09-0.603-0.076z" fill="#03424c" data-fill-palette-color="secondary"></path><path d="M20.274 209.632l-4.394-8.906 2.069-1.021 1.627 3.298 12.925-6.376-1.627-3.299 2.079-1.025 4.393 8.906-2.078 1.025-1.614-3.27-12.925 6.376 1.614 3.271z" fill="#03424c" data-fill-palette-color="secondary"></path><path d="M30.344 225.257l-4.109-6.212c-0.58-0.876-0.884-1.791-0.913-2.744-0.031-0.943 0.169-1.829 0.601-2.658 0.432-0.829 1.048-1.509 1.85-2.039v0c0.722-0.477 1.512-0.757 2.372-0.84 0.859-0.083 1.685 0.083 2.478 0.498v0c-0.008-0.909 0.179-1.728 0.56-2.458 0.387-0.734 0.913-1.321 1.578-1.76v0c0.819-0.542 1.688-0.841 2.606-0.897 0.922-0.05 1.803 0.125 2.644 0.524 0.84 0.399 1.526 1 2.056 1.802v0l4.155 6.281-1.933 1.278-3.99-6.031c-0.311-0.47-0.697-0.811-1.159-1.024-0.472-0.215-0.964-0.305-1.476-0.271-0.507 0.031-0.995 0.201-1.465 0.511v0c-0.441 0.292-0.768 0.669-0.981 1.131-0.217 0.456-0.312 0.947-0.286 1.473 0.032 0.522 0.198 1.009 0.498 1.462v0l3.404 5.147-1.924 1.273-3.297-4.983c-0.371-0.561-0.816-0.959-1.332-1.194-0.512-0.238-1.04-0.333-1.585-0.285-0.549 0.042-1.049 0.212-1.502 0.511v0c-0.458 0.303-0.812 0.689-1.061 1.159-0.255 0.473-0.369 0.985-0.343 1.536 0.027 0.551 0.214 1.089 0.563 1.617v0l3.916 5.92z" fill="#03424c" data-fill-palette-color="secondary"></path><path d="M35.677 231.633l-1.847-2.094 7.932-0.664c-0.342-0.834-0.518-1.672-0.529-2.515-0.01-0.852 0.143-1.665 0.459-2.438 0.321-0.778 0.801-1.449 1.439-2.012v0l1.383-1.22 1.67 1.892-1.383 1.22c-0.505 0.445-0.855 0.983-1.05 1.613-0.191 0.635-0.224 1.283-0.099 1.943 0.124 0.66 0.375 1.272 0.754 1.835v0l7.053-0.632 1.834 2.078-7.574 0.665c0.422 0.883 0.644 1.768 0.666 2.655 0.017 0.892-0.143 1.738-0.48 2.539-0.338 0.811-0.854 1.523-1.549 2.136v0l-1.406 1.241-1.656-1.877 1.405-1.241c0.546-0.482 0.92-1.054 1.122-1.718 0.197-0.659 0.232-1.341 0.106-2.044-0.126-0.713-0.426-1.391-0.902-2.034v0z" fill="#03424c" data-fill-palette-color="secondary"></path><path d="M62.303 237.997v0c-1.027-0.871-2.135-1.427-3.324-1.67-1.19-0.253-2.379-0.162-3.566 0.271-1.183 0.429-2.274 1.232-3.274 2.411v0l-8.301 9.791 1.91 1.619 5.469-6.451 0.04 0.033c-0.128 0.629-0.137 1.261-0.027 1.895 0.111 0.644 0.338 1.263 0.679 1.859 0.332 0.596 0.767 1.123 1.307 1.581v0c0.985 0.835 2.054 1.359 3.207 1.571 1.143 0.213 2.284 0.104 3.423-0.326 1.134-0.425 2.17-1.19 3.107-2.295v0c0.742-0.875 1.272-1.776 1.59-2.704 0.324-0.923 0.455-1.838 0.395-2.744-0.065-0.911-0.322-1.776-0.769-2.597-0.442-0.816-1.064-1.564-1.866-2.244zM60.911 239.639v0c0.65 0.551 1.106 1.208 1.368 1.971 0.263 0.773 0.308 1.585 0.135 2.437-0.179 0.848-0.608 1.673-1.287 2.474v0c-0.657 0.775-1.387 1.323-2.189 1.642-0.798 0.314-1.603 0.415-2.417 0.302-0.804-0.114-1.538-0.453-2.203-1.017v0c-0.65-0.551-1.103-1.21-1.362-1.979-0.268-0.767-0.308-1.575-0.119-2.424 0.188-0.858 0.621-1.688 1.301-2.49v0c0.666-0.786 1.403-1.336 2.21-1.651 0.802-0.319 1.606-0.412 2.411-0.279 0.796 0.134 1.513 0.472 2.152 1.014z" fill="#03424c" data-fill-palette-color="secondary"></path><path d="M65.788 258.265l-2.092-1.374 5.445-8.292c0.679-1.033 1.5-1.652 2.465-1.857 0.966-0.195 1.966 0.046 2.999 0.725v0l2.386 1.566-1.177 1.791-2.006-1.318c-0.499-0.328-0.984-0.441-1.454-0.338-0.468 0.112-0.87 0.423-1.205 0.934v0z" fill="#03424c" data-fill-palette-color="secondary"></path><path d="M83.464 267.937l-3.177-1.617c-1.353-0.688-2.426-1.555-3.22-2.598-0.794-1.044-1.248-2.18-1.362-3.41-0.114-1.229 0.145-2.465 0.777-3.708v0c0.626-1.23 1.438-2.204 2.435-2.922 0.994-0.727 2.081-1.145 3.262-1.253 1.177-0.118 2.353 0.123 3.528 0.721v0c1.279 0.651 2.204 1.469 2.775 2.452 0.564 0.981 0.822 2.041 0.774 3.18-0.057 1.142-0.379 2.289-0.964 3.439v0c-0.09 0.177-0.187 0.36-0.29 0.547-0.106 0.193-0.211 0.355-0.317 0.486v0l-9.217-4.692c-0.301 0.803-0.377 1.573-0.229 2.312 0.158 0.735 0.495 1.404 1.013 2.006 0.521 0.597 1.176 1.096 1.966 1.498v0l3.223 1.64zM79.253 256.974v0l7.051 3.589c0.156-0.306 0.289-0.651 0.399-1.034 0.113-0.374 0.173-0.771 0.179-1.192 0.009-0.412-0.054-0.817-0.19-1.218-0.126-0.403-0.348-0.786-0.664-1.147-0.308-0.365-0.731-0.684-1.269-0.958v0c-0.563-0.287-1.115-0.429-1.656-0.427-0.541 0.002-1.056 0.106-1.546 0.312-0.49 0.205-0.933 0.492-1.328 0.861-0.39 0.372-0.715 0.777-0.976 1.214z" fill="#03424c" data-fill-palette-color="secondary"></path><path d="M97.204 273.23l-6.537-2.31 0.717-2.03 6.256 2.21c0.414 0.146 0.801 0.185 1.161 0.116 0.362-0.076 0.672-0.232 0.93-0.469 0.258-0.236 0.445-0.517 0.559-0.841v0c0.108-0.304 0.137-0.614 0.089-0.93-0.042-0.314-0.174-0.6-0.395-0.861-0.228-0.263-0.539-0.464-0.934-0.603v0l-2.633-0.93c-0.842-0.297-1.523-0.699-2.044-1.203-0.523-0.498-0.866-1.085-1.027-1.762-0.157-0.667-0.097-1.396 0.183-2.186v0c0.236-0.667 0.615-1.225 1.137-1.674 0.529-0.447 1.144-0.743 1.844-0.889 0.706-0.144 1.435-0.083 2.186 0.183v0l6.032 2.131-0.714 2.021-5.798-2.05c-0.531-0.188-1.006-0.173-1.425 0.043-0.428 0.22-0.719 0.551-0.875 0.991v0c-0.151 0.427-0.124 0.856 0.082 1.286 0.205 0.429 0.599 0.747 1.181 0.953v0l2.506 0.885c0.939 0.332 1.676 0.76 2.212 1.285 0.536 0.524 0.873 1.128 1.011 1.81 0.129 0.687 0.049 1.438-0.24 2.253v0c-0.247 0.699-0.647 1.294-1.198 1.784-0.558 0.487-1.208 0.811-1.95 0.972-0.741 0.16-1.514 0.099-2.316-0.185z" fill="#03424c" data-fill-palette-color="secondary"></path><path d="M114.027 277.612l-6.778-1.46 0.454-2.105 6.485 1.397c0.43 0.093 0.818 0.082 1.166-0.033 0.349-0.121 0.637-0.316 0.864-0.583 0.226-0.267 0.376-0.569 0.448-0.905v0c0.068-0.316 0.058-0.627-0.031-0.934-0.082-0.306-0.249-0.573-0.501-0.803-0.259-0.231-0.594-0.391-1.004-0.48v0l-2.729-0.588c-0.873-0.188-1.6-0.499-2.18-0.933-0.582-0.428-0.997-0.966-1.243-1.617-0.241-0.642-0.273-1.373-0.097-2.192v0c0.149-0.692 0.454-1.293 0.916-1.805 0.468-0.51 1.04-0.882 1.716-1.116 0.682-0.232 1.413-0.265 2.191-0.097v0l6.254 1.348-0.451 2.095-6.012-1.296c-0.551-0.119-1.02-0.044-1.408 0.224-0.396 0.273-0.643 0.638-0.741 1.094v0c-0.095 0.443-0.014 0.865 0.244 1.264 0.258 0.4 0.689 0.665 1.293 0.796v0l2.598 0.559c0.973 0.21 1.759 0.541 2.358 0.993 0.598 0.452 1.009 1.008 1.232 1.667 0.215 0.665 0.232 1.42 0.049 2.266v0c-0.156 0.725-0.477 1.366-0.962 1.921-0.492 0.554-1.095 0.958-1.81 1.212-0.715 0.253-1.489 0.29-2.321 0.111z" fill="#03424c" data-fill-palette-color="secondary"></path><path d="M143.04 280l-8.541-0.011 0.003-2.307 8.231 0.01c0.639 0.001 1.185-0.15 1.639-0.451 0.454-0.295 0.808-0.679 1.062-1.153 0.255-0.474 0.382-0.971 0.383-1.493v0c0.001-0.543-0.122-1.048-0.369-1.515-0.247-0.46-0.59-0.832-1.028-1.114-0.446-0.282-0.985-0.424-1.617-0.424v0l-3.595-0.004c-1.065-0.001-2.005-0.226-2.822-0.674-0.817-0.441-1.455-1.056-1.914-1.846-0.466-0.79-0.698-1.683-0.697-2.679v0c0.001-1.016 0.226-1.933 0.673-2.75 0.447-0.81 1.073-1.451 1.877-1.924 0.811-0.473 1.742-0.709 2.793-0.707v0l8.076 0.01-0.003 2.318-7.829-0.01c-0.604-0.001-1.133 0.139-1.587 0.42-0.454 0.274-0.797 0.634-1.031 1.081-0.234 0.446-0.351 0.923-0.352 1.431v0c-0.001 0.488 0.112 0.955 0.338 1.401 0.226 0.44 0.559 0.797 0.998 1.073 0.446 0.275 0.961 0.413 1.544 0.414v0l3.668 0.005c1.14 0.001 2.118 0.229 2.935 0.683 0.817 0.454 1.441 1.07 1.873 1.847 0.439 0.783 0.657 1.673 0.656 2.669v0c-0.001 1.106-0.226 2.088-0.674 2.945-0.447 0.858-1.08 1.534-1.898 2.027-0.811 0.487-1.742 0.729-2.792 0.728z" fill="#03424c" data-fill-palette-color="secondary"></path><path d="M161.166 278.739v0c-1.244 0.176-2.389 0.074-3.435-0.305-1.051-0.371-1.917-0.974-2.596-1.807-0.674-0.841-1.097-1.874-1.271-3.097v0l-1.123-7.936 2.499-0.354 1.12 7.916c0.116 0.823 0.398 1.511 0.844 2.065 0.445 0.547 0.99 0.942 1.634 1.184 0.65 0.234 1.316 0.303 1.996 0.207v0c0.7-0.099 1.327-0.351 1.88-0.755 0.559-0.412 0.98-0.943 1.263-1.594 0.282-0.657 0.364-1.397 0.248-2.22v0l-1.12-7.915 2.499-0.354 1.122 7.936c0.173 1.224 0.049 2.334-0.371 3.33-0.429 0.99-1.093 1.809-1.994 2.457-0.893 0.653-1.958 1.068-3.195 1.242z" fill="#03424c" data-fill-palette-color="secondary"></path><path d="M177.1 274.743l-2.373 0.799-2.661-7.908c-0.342-1.015-0.423-2.021-0.244-3.016 0.177-1.002 0.622-1.898 1.335-2.689 0.704-0.795 1.677-1.401 2.92-1.819v0c0.599-0.202 1.225-0.322 1.878-0.361 0.66-0.041 1.313 0.047 1.959 0.265 0.643 0.211 1.231 0.589 1.762 1.135v0l0.02-0.007c0.126-0.767 0.381-1.429 0.766-1.986 0.383-0.564 0.849-1.029 1.4-1.395 0.544-0.364 1.125-0.65 1.744-0.859v0c1.224-0.412 2.356-0.514 3.397-0.306 1.045 0.199 1.941 0.644 2.688 1.334 0.745 0.684 1.288 1.534 1.63 2.55v0l2.662 7.908-2.363 0.795-2.662-7.908c-0.221-0.657-0.577-1.197-1.067-1.619-0.492-0.429-1.051-0.711-1.677-0.849-0.63-0.128-1.277-0.081-1.941 0.143v0c-0.657 0.221-1.207 0.58-1.648 1.076-0.446 0.505-0.74 1.075-0.881 1.71-0.137 0.626-0.095 1.268 0.126 1.925v0l2.661 7.908-2.372 0.799-2.662-7.909c-0.221-0.657-0.579-1.193-1.073-1.606-0.496-0.42-1.068-0.698-1.716-0.835-0.645-0.131-1.303-0.083-1.974 0.142v0c-0.651 0.219-1.188 0.57-1.613 1.054-0.416 0.488-0.69 1.051-0.822 1.69-0.128 0.63-0.082 1.274 0.139 1.931v0z" fill="#03424c" data-fill-palette-color="secondary"></path><path d="M204.891 263.461l-2.141 1.298-4.325-7.136c-0.555-0.916-0.854-1.88-0.896-2.89-0.046-1.016 0.193-1.988 0.715-2.915 0.513-0.929 1.33-1.734 2.452-2.414v0c0.54-0.327 1.125-0.582 1.755-0.762 0.635-0.184 1.292-0.241 1.969-0.17 0.674 0.065 1.33 0.306 1.968 0.723v0l0.017-0.011c-0.045-0.776 0.06-1.478 0.314-2.105 0.25-0.634 0.604-1.189 1.062-1.667 0.451-0.474 0.956-0.881 1.514-1.219v0c1.104-0.669 2.187-1.016 3.248-1.041 1.063-0.034 2.035 0.204 2.914 0.715 0.876 0.505 1.592 1.216 2.148 2.132v0l4.325 7.136-2.132 1.292-4.325-7.136c-0.36-0.593-0.824-1.042-1.395-1.347-0.574-0.311-1.181-0.465-1.822-0.462-0.643 0.012-1.264 0.2-1.863 0.563v0c-0.593 0.36-1.051 0.83-1.373 1.411-0.325 0.59-0.487 1.211-0.487 1.86 0.003 0.641 0.184 1.258 0.544 1.851v0l4.325 7.136-2.141 1.298-4.325-7.136c-0.36-0.593-0.826-1.038-1.398-1.333-0.576-0.301-1.195-0.448-1.857-0.441-0.658 0.014-1.29 0.204-1.895 0.571v0c-0.587 0.356-1.035 0.816-1.344 1.38-0.299 0.567-0.444 1.176-0.433 1.829 0.012 0.643 0.198 1.261 0.557 1.854v0z" fill="#03424c" data-fill-palette-color="secondary"></path><path d="M232.123 244.693v0c-0.994 0.897-2.072 1.435-3.234 1.614-1.157 0.174-2.301 0.028-3.435-0.439-1.128-0.471-2.141-1.204-3.038-2.198v0c-0.911-1.01-1.52-2.115-1.828-3.318-0.298-1.202-0.261-2.406 0.112-3.612 0.373-1.206 1.126-2.32 2.258-3.342v0c1.091-0.985 2.241-1.592 3.448-1.821 1.203-0.235 2.38-0.14 3.531 0.283 1.155 0.429 2.181 1.14 3.078 2.135v0l4.7 5.208-1.874 1.691-1.898-2.103-0.038 0.034c0.15 0.577 0.216 1.198 0.196 1.863-0.02 0.665-0.183 1.345-0.491 2.039-0.303 0.69-0.798 1.345-1.487 1.966zM231.17 242.653v0c0.673-0.607 1.118-1.309 1.333-2.105 0.226-0.796 0.219-1.618-0.019-2.467-0.244-0.844-0.692-1.628-1.345-2.352v0c-0.644-0.714-1.359-1.23-2.146-1.547-0.786-0.318-1.584-0.412-2.392-0.283-0.804 0.134-1.551 0.511-2.239 1.132v0c-0.729 0.658-1.199 1.388-1.411 2.189-0.216 0.806-0.205 1.618 0.036 2.438 0.24 0.82 0.689 1.594 1.346 2.323v0c0.63 0.699 1.338 1.211 2.124 1.539 0.78 0.332 1.58 0.434 2.399 0.305 0.814-0.124 1.585-0.514 2.314-1.172z" fill="#03424c" data-fill-palette-color="secondary"></path><path d="M244.011 232.165l-1.638 1.893-7.501-6.492c-0.935-0.809-1.44-1.705-1.516-2.688-0.066-0.984 0.305-1.943 1.114-2.877v0l1.867-2.158 1.621 1.402-1.571 1.815c-0.391 0.452-0.567 0.917-0.527 1.397 0.049 0.478 0.305 0.918 0.767 1.317v0z" fill="#03424c" data-fill-palette-color="secondary"></path><path d="M251.335 222.877l-1.508 2.025-11.12-8.283 1.507-2.024zM237.702 214.278v0c-0.271 0.364-0.642 0.58-1.113 0.649-0.471 0.069-0.888-0.032-1.252-0.303v0c-0.364-0.271-0.577-0.64-0.64-1.107-0.069-0.471 0.032-0.888 0.303-1.251v0c0.271-0.364 0.642-0.58 1.112-0.649 0.461-0.067 0.874 0.034 1.238 0.305v0c0.364 0.271 0.582 0.639 0.654 1.104 0.069 0.471-0.032 0.888-0.302 1.252z" fill="#03424c" data-fill-palette-color="secondary"></path><path d="M260.351 208.424l-4.222 7.006c-0.301 0.5-0.687 0.873-1.155 1.12-0.463 0.25-0.959 0.368-1.489 0.354-0.535-0.018-1.034-0.166-1.499-0.446v0c-0.494-0.298-0.86-0.682-1.096-1.155-0.241-0.466-0.375-1.028-0.404-1.686v0l-0.17-7.56c0.001-0.32-0.047-0.554-0.144-0.7-0.099-0.156-0.227-0.281-0.386-0.377v0c-0.182-0.11-0.402-0.138-0.659-0.084-0.257 0.054-0.462 0.207-0.614 0.46v0l-3.632 6.026-1.835-1.106 4.025-6.679c0.291-0.482 0.666-0.846 1.126-1.09 0.462-0.235 0.959-0.348 1.492-0.34 0.535 0.018 1.034 0.166 1.499 0.447v0c0.482 0.291 0.848 0.675 1.097 1.154 0.249 0.479 0.386 1.03 0.41 1.654v0l0.174 7.574c-0.003 0.311 0.045 0.544 0.144 0.7 0.099 0.156 0.224 0.28 0.377 0.372v0c0.188 0.113 0.411 0.143 0.668 0.09 0.255-0.063 0.462-0.227 0.621-0.492v0l3.828-6.353z" fill="#03424c" data-fill-palette-color="secondary"></path><path d="M267.561 192.627l-1.428 3.266c-0.608 1.391-1.41 2.513-2.406 3.367-0.996 0.854-2.104 1.374-3.324 1.559-1.221 0.186-2.47-0.001-3.747-0.559v0c-1.265-0.553-2.285-1.306-3.06-2.26-0.784-0.95-1.264-2.011-1.441-3.183-0.186-1.168-0.015-2.357 0.513-3.564v0c0.575-1.315 1.337-2.286 2.286-2.913 0.946-0.621 1.989-0.94 3.129-0.959 1.144-0.01 2.307 0.244 3.49 0.761v0c0.182 0.08 0.37 0.166 0.562 0.257 0.199 0.094 0.367 0.19 0.504 0.288v0l-4.144 9.476c0.819 0.253 1.592 0.284 2.32 0.093 0.725-0.2 1.373-0.577 1.944-1.128 0.565-0.555 1.025-1.238 1.38-2.05v0l1.449-3.313zM256.863 197.472v0l3.17-7.248c-0.315-0.138-0.666-0.25-1.055-0.338-0.38-0.091-0.78-0.128-1.201-0.109-0.411 0.015-0.813 0.102-1.204 0.26-0.395 0.149-0.764 0.393-1.107 0.73-0.346 0.328-0.64 0.769-0.882 1.324v0c-0.253 0.579-0.363 1.138-0.329 1.677 0.034 0.54 0.168 1.048 0.402 1.525 0.234 0.477 0.546 0.902 0.937 1.276 0.394 0.367 0.817 0.668 1.269 0.903z" fill="#03424c" data-fill-palette-color="secondary"></path><path d="M270.886 182.898l-0.74 2.392-9.477-2.933c-1.181-0.365-2.003-0.983-2.468-1.853-0.456-0.874-0.501-1.902-0.135-3.083v0l0.844-2.726 2.047 0.634-0.71 2.293c-0.177 0.571-0.151 1.068 0.078 1.49 0.237 0.418 0.648 0.718 1.232 0.899v0z" fill="#03424c" data-fill-palette-color="secondary"></path></g></svg></g></svg></g></svg></g><g></g></svg></g><defs></defs><mask id="53c59ddd-74b5-4649-b306-3db812543646"><g id="SvgjsG1553"><svg viewBox="0 0 280 280" height="280" width="280"><g><svg viewBox="0 0 280 280" height="280" width="280"><g><svg viewBox="0 0 280 280" height="280" width="280"><g id="SvgjsG1552"><svg viewBox="0 0 280 280" height="280" width="280" id="SvgjsSvg1551"><g><svg viewBox="0 0 280 280" height="280" width="280"><g transform="matrix(1,0,0,1,64.76383848175135,82.96613562326311)"><svg viewBox="0 0 150.4723230364973 114.06772875347376" height="114.06772875347376" width="150.4723230364973"><g id="SvgjsG1550"><svg xmlns="http://www.w3.org/2000/svg" xmlns:xlink="http://www.w3.org/1999/xlink" version="1.1" x="0" y="0" viewBox="1 9 62 47" style="enable-background:new 0 0 64 64;" xml:space="preserve" height="114.06772875347376" width="150.4723230364973" class="icon-xg-0" data-fill-palette-color="accent" id="SvgjsSvg1549"><g fill="white"><path d="M21 44c-2.206 0-4 1.794-4 4s1.794 4 4 4 4-1.794 4-4S23.206 44 21 44zM21 50c-1.103 0-2-0.897-2-2s0.897-2 2-2 2 0.897 2 2S22.103 50 21 50z" fill="white"></path><path d="M45 44c-2.206 0-4 1.794-4 4s1.794 4 4 4 4-1.794 4-4S47.206 44 45 44zM45 50c-1.103 0-2-0.897-2-2s0.897-2 2-2 2 0.897 2 2S46.103 50 45 50z" fill="white"></path><path d="M61 34.184v-8.019c0-0.953-0.271-1.882-0.782-2.685l-5.786-9.092c-0.554-0.87-1.5-1.389-2.53-1.389H45V9H12.219l-1.5 6h3.092l-0.348 2H5v2h8.115l-0.696 4H5v2h7.072l-0.696 4H5v2h6.028l-0.87 5H8.117l-1 8H7c-1.103 0-2 0.897-2 2v4c0 1.103 0.897 2 2 2h7.082c1.386 2.387 3.964 4 6.918 4s5.532-1.613 6.918-4h10.165c1.386 2.387 3.964 4 6.918 4s5.532-1.613 6.918-4h7.891l3.169-14.79L63 37C63 35.698 62.161 34.598 61 34.184zM51.902 15c0.343 0 0.659 0.173 0.843 0.463l5.786 9.092C58.838 25.036 59 25.593 59 26.165V34h-3.82l-0.4 2H39V16c0-0.552 0.449-1 1-1h5H51.902zM13.781 11H43v2h-3H13.281L13.781 11zM15.841 15h21.343C37.072 15.314 37 15.648 37 16v20H12.189L15.841 15zM9.883 38H54.38l-1.2 6h-1.263c-1.386-2.387-3.964-4-6.918-4s-5.532 1.613-6.918 4H27.918c-1.386-2.387-3.964-4-6.918-4s-5.532 1.613-6.918 4h-4.95L9.883 38zM7 50v-4h6.263C13.097 46.641 13 47.308 13 48s0.097 1.359 0.263 2H7zM21 54c-3.309 0-6-2.691-6-6s2.691-6 6-6 6 2.691 6 6S24.309 54 21 54zM28.737 50C28.903 49.359 29 48.692 29 48s-0.097-1.359-0.263-2h8.527C37.097 46.641 37 47.308 37 48s0.097 1.359 0.263 2H28.737zM45 54c-3.309 0-6-2.691-6-6s2.691-6 6-6 6 2.691 6 6S48.309 54 45 54zM58.191 50h-5.455C52.903 49.359 53 48.692 53 48s-0.097-1.359-0.263-2h2.083l2-10H60c0.522 0 0.952 0.401 0.996 0.912L58.191 50z" fill="white"></path><path d="M57 25.713L51.554 17H41v13h16V25.713zM55 28H43v-9h7.446L55 26.287V28z" fill="white"></path><rect x="41" y="32" width="6" height="2" fill="white"></rect><rect x="1" y="17" width="2" height="2" fill="white"></rect><rect x="1" y="23" width="2" height="2" fill="white"></rect><rect x="1" y="29" width="2" height="2" fill="white"></rect></g></svg></g></svg></g><g id="SvgjsG1548"><path d="M22.003 108.51l-0.902 2.631-14.358-11.864c-0.621-0.518-1.01-1.076-1.168-1.675-0.164-0.601-0.136-1.223 0.085-1.866v0c0.221-0.643 0.575-1.157 1.063-1.541 0.494-0.382 1.14-0.582 1.937-0.599v0l18.652-0.56-0.939 2.738-4.949 0.077-3.27 9.53zM8.32 97.411l7.89 6.432 2.744-8-10.149 0.155c-0.259 0.013-0.467 0.05-0.627 0.112-0.159 0.062-0.271 0.187-0.335 0.375v0c-0.06 0.175-0.046 0.336 0.041 0.482 0.088 0.146 0.233 0.294 0.436 0.444z" fill="black"></path><path d="M32.875 81.711l-4.455 9.013-2.097-1.036 1.648-3.334-13.086-6.469-1.648 3.334-2.096-1.036 4.456-9.014 2.096 1.036-1.639 3.316 13.086 6.469 1.639-3.316z" fill="black"></path><path d="M42.087 67.629l-4.164 6.287c-0.588 0.887-1.319 1.532-2.195 1.932-0.869 0.404-1.775 0.571-2.715 0.499-0.947-0.075-1.824-0.38-2.632-0.915v0c-0.739-0.489-1.315-1.118-1.728-1.886-0.41-0.774-0.58-1.612-0.51-2.513v0c-0.841 0.374-1.679 0.527-2.516 0.459-0.833-0.074-1.587-0.334-2.263-0.782v0c-0.824-0.546-1.446-1.238-1.863-2.075-0.412-0.833-0.597-1.722-0.556-2.667 0.037-0.939 0.325-1.815 0.863-2.628v0l4.21-6.355 1.95 1.291-4.045 6.106c-0.315 0.475-0.479 0.972-0.493 1.49-0.014 0.518 0.098 1.008 0.336 1.471 0.228 0.464 0.58 0.854 1.055 1.168v0c0.447 0.296 0.927 0.453 1.441 0.473 0.514 0.019 1.01-0.089 1.488-0.324 0.468-0.234 0.855-0.583 1.163-1.047v0l3.447-5.204 1.958 1.297-3.345 5.05c-0.375 0.567-0.57 1.134-0.583 1.702-0.017 0.573 0.103 1.106 0.361 1.599 0.259 0.493 0.617 0.891 1.075 1.194v0c0.458 0.303 0.957 0.477 1.496 0.521 0.541 0.054 1.062-0.042 1.562-0.288 0.502-0.236 0.932-0.623 1.288-1.16v0l3.966-5.987z" fill="black"></path><path d="M46.173 62.895l-1.875 2.123-1.657-7.896c-0.794 0.453-1.616 0.74-2.464 0.86-0.854 0.116-1.689 0.061-2.507-0.166-0.821-0.222-1.554-0.617-2.197-1.185v0l-1.405-1.242 1.692-1.914 1.405 1.241c0.504 0.446 1.086 0.726 1.745 0.841 0.659 0.115 1.313 0.07 1.962-0.136 0.654-0.211 1.239-0.541 1.756-0.992v0l-1.527-6.999 1.862-2.108 1.611 7.527c0.838-0.534 1.703-0.869 2.594-1.007 0.892-0.128 1.764-0.073 2.616 0.167 0.852 0.239 1.63 0.67 2.335 1.293v0l1.421 1.255-1.678 1.9-1.421-1.256c-0.551-0.487-1.17-0.791-1.859-0.914-0.693-0.118-1.388-0.067-2.085 0.151-0.692 0.213-1.333 0.601-1.921 1.163v0z" fill="black"></path><path d="M52.953 36.11v0c-1.038 0.879-1.782 1.891-2.234 3.037-0.441 1.147-0.548 2.35-0.321 3.607 0.237 1.257 0.859 2.481 1.866 3.67v0l8.4 9.923 1.934-1.637-5.531-6.534 0.039-0.033c0.609 0.231 1.241 0.344 1.894 0.34 0.663-0.003 1.319-0.127 1.968-0.37 0.653-0.238 1.252-0.588 1.798-1.05v0c0.996-0.843 1.696-1.818 2.099-2.925 0.405-1.116 0.489-2.276 0.253-3.48-0.241-1.209-0.836-2.374-1.786-3.496v0c-0.745-0.881-1.554-1.559-2.425-2.036-0.872-0.477-1.767-0.758-2.686-0.845-0.919-0.086-1.824 0.024-2.717 0.33-0.888 0.311-1.739 0.811-2.551 1.499zM54.357 37.769v0c0.655-0.555 1.388-0.901 2.199-1.038 0.815-0.132 1.634-0.042 2.455 0.269 0.817 0.316 1.569 0.881 2.257 1.694v0c0.666 0.786 1.09 1.606 1.272 2.459 0.187 0.859 0.155 1.682-0.095 2.47-0.245 0.784-0.706 1.462-1.383 2.034v0c-0.655 0.555-1.39 0.898-2.205 1.03-0.811 0.137-1.626 0.04-2.446-0.291-0.816-0.326-1.568-0.895-2.256-1.708v0c-0.679-0.802-1.11-1.63-1.292-2.482-0.182-0.853-0.141-1.671 0.123-2.454 0.269-0.777 0.726-1.438 1.371-1.983z" fill="black"></path><path d="M73.511 38.687l-2.119 1.39-5.515-8.407c-0.682-1.039-0.921-2.049-0.718-3.028 0.203-0.979 0.828-1.812 1.873-2.498v0l2.412-1.582 1.192 1.818-2.024 1.328c-0.505 0.332-0.805 0.738-0.901 1.219-0.089 0.477 0.036 0.975 0.375 1.491v0z" fill="black"></path><path d="M89.888 29.785l-3.223 1.639c-1.371 0.698-2.72 1.06-4.046 1.088-1.327 0.028-2.527-0.279-3.6-0.92-1.079-0.638-1.94-1.587-2.582-2.847v0c-0.632-1.243-0.945-2.486-0.938-3.73 0.004-1.25 0.309-2.392 0.917-3.425 0.61-1.027 1.512-1.844 2.705-2.451v0c1.292-0.657 2.511-0.927 3.658-0.809 1.137 0.115 2.157 0.536 3.058 1.264 0.908 0.725 1.658 1.669 2.25 2.832v0c0.09 0.178 0.182 0.366 0.275 0.565 0.087 0.202 0.153 0.384 0.198 0.547v0l-9.329 4.745c0.478 0.728 1.064 1.25 1.757 1.568 0.699 0.315 1.448 0.438 2.246 0.372 0.798-0.067 1.598-0.304 2.4-0.713v0l3.269-1.663zM78.404 26.704v0l7.135-3.629c-0.159-0.312-0.359-0.63-0.601-0.954-0.245-0.315-0.535-0.598-0.872-0.851-0.33-0.256-0.702-0.448-1.114-0.578-0.406-0.132-0.851-0.18-1.333-0.143-0.485 0.046-0.997 0.207-1.535 0.481v0c-0.569 0.29-1.015 0.655-1.338 1.097-0.323 0.441-0.546 0.925-0.672 1.451-0.125 0.526-0.151 1.059-0.076 1.599 0.068 0.543 0.204 1.052 0.406 1.527z" fill="black"></path><path d="M101.901 25.241l-6.624 2.341-0.724-2.05 6.343-2.241c0.414-0.146 0.742-0.364 0.982-0.653 0.234-0.287 0.376-0.606 0.426-0.959 0.052-0.346 0.02-0.685-0.097-1.015v0c-0.11-0.311-0.281-0.578-0.513-0.802-0.23-0.217-0.516-0.357-0.857-0.418-0.351-0.065-0.724-0.028-1.119 0.111v0l-2.671 0.944c-0.848 0.3-1.64 0.419-2.376 0.359-0.729-0.063-1.369-0.307-1.919-0.732-0.553-0.431-0.97-1.045-1.251-1.841v0c-0.238-0.673-0.292-1.353-0.164-2.04 0.127-0.693 0.42-1.317 0.879-1.873 0.463-0.564 1.077-0.982 1.841-1.251v0l6.1-2.155 0.724 2.049-5.867 2.073c-0.537 0.19-0.903 0.505-1.097 0.945-0.194 0.44-0.212 0.884-0.054 1.33v0c0.153 0.434 0.445 0.753 0.874 0.959 0.438 0.209 0.952 0.21 1.541 0.001v0l2.545-0.899c0.952-0.336 1.805-0.467 2.56-0.391 0.753 0.069 1.399 0.332 1.94 0.79 0.538 0.451 0.954 1.091 1.246 1.919v0c0.252 0.712 0.313 1.433 0.186 2.164-0.132 0.739-0.435 1.407-0.909 2.004-0.48 0.599-1.128 1.043-1.945 1.331z" fill="black"></path><path d="M116.998 21.353l-6.868 1.48-0.458-2.125 6.576-1.417c0.43-0.093 0.782-0.267 1.057-0.523 0.268-0.255 0.45-0.554 0.544-0.897 0.096-0.337 0.107-0.676 0.034-1.019v0c-0.069-0.322-0.205-0.609-0.407-0.861-0.2-0.245-0.466-0.419-0.798-0.524-0.34-0.109-0.714-0.12-1.124-0.031v0l-2.769 0.597c-0.879 0.19-1.68 0.208-2.402 0.053-0.715-0.155-1.318-0.478-1.811-0.969-0.494-0.498-0.83-1.16-1.007-1.985v0c-0.15-0.698-0.118-1.38 0.097-2.044 0.214-0.671 0.583-1.253 1.109-1.746 0.531-0.501 1.193-0.837 1.986-1.008v0l6.324-1.363 0.458 2.125-6.083 1.311c-0.557 0.12-0.96 0.386-1.208 0.798-0.248 0.412-0.323 0.849-0.223 1.312v0c0.097 0.45 0.345 0.804 0.745 1.062 0.408 0.263 0.918 0.329 1.529 0.198v0l2.638-0.569c0.987-0.213 1.85-0.234 2.589-0.063 0.738 0.164 1.346 0.507 1.824 1.03 0.476 0.516 0.807 1.203 0.993 2.062v0c0.159 0.739 0.129 1.462-0.091 2.17-0.225 0.716-0.61 1.34-1.156 1.872-0.552 0.534-1.252 0.892-2.098 1.073z" fill="black"></path><path d="M142.979 19.284l-8.643 0.018-0.005-2.338 8.344-0.018c0.646-0.001 1.195-0.154 1.647-0.457 0.459-0.303 0.819-0.695 1.08-1.177 0.253-0.474 0.379-0.979 0.377-1.515v0c-0.001-0.549-0.126-1.057-0.374-1.524-0.248-0.466-0.599-0.843-1.053-1.131-0.447-0.281-0.993-0.42-1.639-0.419v0l-3.626 0.008c-1.085 0.002-2.04-0.222-2.865-0.673-0.832-0.445-1.482-1.068-1.951-1.871-0.469-0.796-0.704-1.698-0.707-2.708v0c-0.002-1.03 0.219-1.958 0.664-2.783 0.451-0.825 1.085-1.479 1.901-1.961 0.816-0.476 1.757-0.715 2.821-0.717v0l8.18-0.018 0.005 2.338-7.932 0.018c-0.604 0.001-1.136 0.147-1.596 0.436-0.46 0.283-0.809 0.647-1.049 1.094-0.233 0.454-0.348 0.938-0.347 1.453v0c0.001 0.494 0.115 0.965 0.343 1.411 0.228 0.453 0.568 0.816 1.023 1.09 0.447 0.274 0.966 0.41 1.556 0.409v0l3.719-0.009c1.154-0.003 2.143 0.225 2.968 0.684 0.832 0.458 1.469 1.082 1.91 1.871 0.441 0.789 0.663 1.688 0.665 2.698v0c0.002 1.119-0.219 2.116-0.663 2.988-0.451 0.873-1.089 1.558-1.911 2.055-0.83 0.496-1.777 0.746-2.842 0.748z" fill="black"></path><path d="M159.037 21.049v0c-1.251-0.176-2.337-0.592-3.258-1.249-0.92-0.657-1.59-1.489-2.01-2.499-0.428-1.003-0.554-2.124-0.38-3.361v0l1.13-8.039 2.54 0.357-1.127 8.019c-0.118 0.837-0.039 1.583 0.236 2.238 0.281 0.664 0.701 1.201 1.261 1.613 0.566 0.413 1.193 0.667 1.88 0.764v0c0.714 0.1 1.397 0.03 2.048-0.211 0.658-0.24 1.214-0.641 1.667-1.202 0.459-0.553 0.748-1.247 0.865-2.083v0l1.128-8.019 2.54 0.358-1.131 8.038c-0.174 1.238-0.608 2.279-1.303 3.125-0.696 0.852-1.569 1.468-2.621 1.847-1.059 0.378-2.214 0.479-3.465 0.304z" fill="black"></path><path d="M172.527 23.783l-2.402-0.808 2.696-8.016c0.344-1.022 0.893-1.881 1.649-2.576 0.755-0.695 1.664-1.147 2.727-1.354 1.054-0.204 2.209-0.094 3.465 0.328v0c0.605 0.204 1.187 0.49 1.744 0.858 0.551 0.366 1.02 0.836 1.407 1.408 0.396 0.568 0.64 1.233 0.731 1.996v0l0.019 0.006c0.573-0.539 1.185-0.917 1.837-1.132 0.654-0.222 1.315-0.311 1.982-0.268 0.66 0.041 1.306 0.167 1.937 0.38v0c1.23 0.414 2.207 1.021 2.93 1.822 0.715 0.805 1.163 1.713 1.345 2.724 0.182 1.01 0.101 2.027-0.243 3.048v0l-2.695 8.017-2.403-0.808 2.696-8.016c0.221-0.657 0.266-1.309 0.136-1.955-0.131-0.645-0.407-1.213-0.83-1.702-0.429-0.492-0.982-0.852-1.658-1.08v0c-0.664-0.223-1.326-0.268-1.987-0.135-0.669 0.137-1.252 0.416-1.748 0.835-0.505 0.424-0.868 0.965-1.089 1.623v0l-2.696 8.017-2.402-0.808 2.696-8.017c0.221-0.657 0.262-1.307 0.122-1.947-0.142-0.635-0.434-1.208-0.878-1.72-0.44-0.503-0.998-0.868-1.675-1.095v0c-0.664-0.223-1.312-0.267-1.945-0.133-0.639 0.133-1.205 0.417-1.699 0.853-0.494 0.435-0.852 0.982-1.073 1.639v0z" fill="black"></path><path d="M197.658 33.808l-2.167-1.316 4.39-7.229c0.56-0.922 1.284-1.639 2.173-2.151 0.89-0.512 1.876-0.753 2.958-0.723 1.073 0.033 2.176 0.393 3.309 1.081v0c0.546 0.331 1.05 0.738 1.513 1.22 0.457 0.478 0.811 1.039 1.064 1.682 0.262 0.641 0.353 1.343 0.275 2.107v0l0.018 0.011c0.677-0.4 1.357-0.634 2.04-0.701 0.687-0.073 1.351-0.015 1.992 0.173 0.635 0.185 1.237 0.45 1.807 0.795v0c1.11 0.674 1.929 1.481 2.459 2.421 0.52 0.943 0.758 1.927 0.714 2.953-0.044 1.026-0.346 1.999-0.905 2.921v0l-4.39 7.229-2.166-1.315 4.389-7.23c0.36-0.593 0.547-1.219 0.561-1.876 0.014-0.658-0.131-1.273-0.435-1.844-0.31-0.574-0.771-1.046-1.381-1.417v0c-0.599-0.364-1.235-0.553-1.909-0.568-0.683-0.013-1.313 0.131-1.889 0.432-0.586 0.303-1.059 0.751-1.419 1.344v0l-4.389 7.229-2.167-1.315 4.39-7.229c0.36-0.593 0.542-1.217 0.547-1.874 0.001-0.65-0.159-1.273-0.48-1.87-0.318-0.587-0.783-1.066-1.393-1.436v0c-0.599-0.364-1.221-0.549-1.868-0.556-0.652-0.01-1.268 0.142-1.846 0.459-0.578 0.316-1.046 0.771-1.406 1.363v0z" fill="black"></path><path d="M222.464 51.612v0c-1.008-0.912-1.66-1.942-1.955-3.09-0.301-1.152-0.271-2.32 0.088-3.505 0.354-1.189 0.987-2.288 1.9-3.297v0c0.922-1.018 1.975-1.742 3.159-2.17 1.179-0.433 2.396-0.518 3.648-0.255 1.253 0.254 2.452 0.899 3.598 1.936v0c1.1 0.995 1.83 2.087 2.191 3.275 0.356 1.193 0.379 2.39 0.069 3.592-0.309 1.212-0.918 2.319-1.825 3.322v0l-4.77 5.27-1.902-1.721 1.922-2.123-0.038-0.035c-0.563 0.213-1.182 0.338-1.856 0.377-0.673 0.048-1.373-0.043-2.1-0.275-0.727-0.241-1.436-0.675-2.129-1.301zM224.412 50.443v0c0.682 0.618 1.438 0.996 2.266 1.134 0.819 0.139 1.643 0.047 2.474-0.277 0.829-0.333 1.576-0.866 2.239-1.599v0c0.654-0.723 1.102-1.494 1.344-2.314 0.236-0.824 0.247-1.639 0.031-2.444-0.215-0.796-0.671-1.51-1.369-2.142v0c-0.733-0.664-1.516-1.062-2.349-1.196-0.833-0.134-1.65-0.039-2.451 0.283-0.8 0.332-1.532 0.864-2.196 1.597v0c-0.641 0.708-1.089 1.474-1.345 2.299-0.251 0.82-0.271 1.635-0.06 2.446 0.211 0.811 0.683 1.549 1.416 2.213z" fill="black"></path><path d="M233.56 62.415l-1.656-1.919 7.611-6.57c0.941-0.812 1.91-1.182 2.908-1.109 0.998 0.073 1.905 0.583 2.722 1.529v0l1.885 2.184-1.646 1.42-1.582-1.833c-0.395-0.457-0.837-0.702-1.326-0.732-0.485-0.026-0.961 0.163-1.43 0.567v0z" fill="black"></path><path d="M240.194 70.857l-1.531-2.058 11.265-8.383 1.531 2.058zM252.496 60.123v0c-0.275-0.369-0.38-0.792-0.315-1.268 0.075-0.475 0.294-0.848 0.658-1.119v0c0.369-0.275 0.792-0.38 1.268-0.314 0.475 0.075 0.85 0.296 1.124 0.665v0c0.275 0.369 0.378 0.789 0.309 1.26-0.075 0.475-0.296 0.85-0.666 1.125v0c-0.364 0.271-0.784 0.373-1.26 0.308-0.471-0.069-0.844-0.288-1.118-0.657z" fill="black"></path><path d="M248.431 84.164l-4.276-7.093c-0.305-0.506-0.459-1.027-0.46-1.563-0.002-0.536 0.129-1.036 0.394-1.501 0.268-0.474 0.637-0.853 1.107-1.136v0c0.5-0.301 1.017-0.448 1.551-0.442 0.531 0.017 1.097 0.164 1.698 0.444v0l6.852 3.424c0.283 0.15 0.516 0.218 0.7 0.203 0.184-0.015 0.355-0.07 0.513-0.165v0c0.188-0.113 0.319-0.296 0.392-0.548 0.069-0.258 0.027-0.514-0.126-0.767v0l-3.68-6.105 1.862-1.122 4.079 6.767c0.294 0.488 0.439 0.994 0.434 1.518-0.001 0.53-0.135 1.027-0.4 1.492-0.262 0.47-0.628 0.848-1.098 1.131v0c-0.488 0.294-1.005 0.441-1.55 0.442-0.555-0.002-1.116-0.141-1.683-0.417v0l-6.86-3.419c-0.283-0.15-0.516-0.218-0.7-0.204-0.184 0.015-0.355 0.07-0.514 0.166v0c-0.188 0.113-0.319 0.296-0.391 0.548-0.069 0.258-0.024 0.519 0.136 0.784v0l3.882 6.441z" fill="black"></path><path d="M254.793 98.342l-1.449-3.312c-0.617-1.409-0.9-2.777-0.851-4.104 0.05-1.326 0.425-2.506 1.127-3.54 0.699-1.041 1.697-1.844 2.993-2.412v0c1.277-0.559 2.537-0.799 3.778-0.719 1.248 0.076 2.37 0.447 3.366 1.113 0.99 0.669 1.753 1.617 2.29 2.844v0c0.581 1.328 0.779 2.56 0.595 3.698-0.181 1.129-0.661 2.122-1.44 2.98-0.776 0.864-1.762 1.558-2.957 2.081v0c-0.182 0.08-0.376 0.161-0.58 0.242-0.207 0.076-0.393 0.131-0.558 0.166v0l-4.195-9.589c-0.754 0.435-1.31 0.989-1.668 1.663-0.355 0.68-0.522 1.42-0.501 2.221 0.02 0.801 0.211 1.613 0.572 2.437v0l1.47 3.36zM258.536 87.057v0l3.209 7.333c0.321-0.14 0.65-0.322 0.987-0.545 0.328-0.226 0.628-0.5 0.9-0.821 0.274-0.315 0.488-0.675 0.642-1.079 0.156-0.398 0.229-0.839 0.22-1.322-0.018-0.487-0.148-1.007-0.391-1.561v0c-0.256-0.585-0.595-1.052-1.017-1.399-0.422-0.348-0.892-0.599-1.41-0.755-0.518-0.156-1.049-0.212-1.592-0.169-0.546 0.037-1.062 0.142-1.548 0.318z" fill="black"></path><path d="M257.536 106.497l-0.75-2.42 9.603-2.978c1.187-0.368 2.224-0.319 3.109 0.147 0.885 0.466 1.513 1.296 1.883 2.49v0l0.854 2.755-2.076 0.644-0.717-2.313c-0.179-0.577-0.487-0.978-0.923-1.202-0.434-0.218-0.947-0.235-1.537-0.052v0z" fill="black"></path><path d="M2.675 142.663c0-4.153 3.367-7.521 7.521-7.521 4.153 0 7.521 3.367 7.52 7.521 0 4.153-3.367 7.521-7.52 7.52-4.153 0-7.521-3.367-7.521-7.52z" fill="black"></path><path d="M262.284 142.663c0-4.153 3.367-7.521 7.52-7.521 4.153 0 7.521 3.367 7.521 7.521 0 4.153-3.367 7.521-7.521 7.52-4.153 0-7.521-3.367-7.52-7.52z" fill="black"></path></g><g id="SvgjsG1547"><path d="M8.788 181.311l-0.89-2.603 18.382 0.55c0.797 0.039 1.441 0.244 1.93 0.614 0.489 0.37 0.842 0.87 1.057 1.5v0c0.218 0.637 0.254 1.252 0.109 1.846-0.152 0.596-0.537 1.146-1.156 1.648v0l-14.204 11.728-0.923-2.7 3.81-3.056-3.22-9.416zM26.185 181.686l-10.056-0.241 2.701 7.896 7.828-6.271c0.199-0.162 0.339-0.315 0.42-0.46 0.088-0.146 0.1-0.314 0.035-0.502v0c-0.058-0.169-0.166-0.284-0.325-0.346-0.153-0.064-0.354-0.09-0.603-0.076z" fill="black"></path><path d="M20.274 209.632l-4.394-8.906 2.069-1.021 1.627 3.298 12.925-6.376-1.627-3.299 2.079-1.025 4.393 8.906-2.078 1.025-1.614-3.27-12.925 6.376 1.614 3.271z" fill="black"></path><path d="M30.344 225.257l-4.109-6.212c-0.58-0.876-0.884-1.791-0.913-2.744-0.031-0.943 0.169-1.829 0.601-2.658 0.432-0.829 1.048-1.509 1.85-2.039v0c0.722-0.477 1.512-0.757 2.372-0.84 0.859-0.083 1.685 0.083 2.478 0.498v0c-0.008-0.909 0.179-1.728 0.56-2.458 0.387-0.734 0.913-1.321 1.578-1.76v0c0.819-0.542 1.688-0.841 2.606-0.897 0.922-0.05 1.803 0.125 2.644 0.524 0.84 0.399 1.526 1 2.056 1.802v0l4.155 6.281-1.933 1.278-3.99-6.031c-0.311-0.47-0.697-0.811-1.159-1.024-0.472-0.215-0.964-0.305-1.476-0.271-0.507 0.031-0.995 0.201-1.465 0.511v0c-0.441 0.292-0.768 0.669-0.981 1.131-0.217 0.456-0.312 0.947-0.286 1.473 0.032 0.522 0.198 1.009 0.498 1.462v0l3.404 5.147-1.924 1.273-3.297-4.983c-0.371-0.561-0.816-0.959-1.332-1.194-0.512-0.238-1.04-0.333-1.585-0.285-0.549 0.042-1.049 0.212-1.502 0.511v0c-0.458 0.303-0.812 0.689-1.061 1.159-0.255 0.473-0.369 0.985-0.343 1.536 0.027 0.551 0.214 1.089 0.563 1.617v0l3.916 5.92z" fill="black"></path><path d="M35.677 231.633l-1.847-2.094 7.932-0.664c-0.342-0.834-0.518-1.672-0.529-2.515-0.01-0.852 0.143-1.665 0.459-2.438 0.321-0.778 0.801-1.449 1.439-2.012v0l1.383-1.22 1.67 1.892-1.383 1.22c-0.505 0.445-0.855 0.983-1.05 1.613-0.191 0.635-0.224 1.283-0.099 1.943 0.124 0.66 0.375 1.272 0.754 1.835v0l7.053-0.632 1.834 2.078-7.574 0.665c0.422 0.883 0.644 1.768 0.666 2.655 0.017 0.892-0.143 1.738-0.48 2.539-0.338 0.811-0.854 1.523-1.549 2.136v0l-1.406 1.241-1.656-1.877 1.405-1.241c0.546-0.482 0.92-1.054 1.122-1.718 0.197-0.659 0.232-1.341 0.106-2.044-0.126-0.713-0.426-1.391-0.902-2.034v0z" fill="black"></path><path d="M62.303 237.997v0c-1.027-0.871-2.135-1.427-3.324-1.67-1.19-0.253-2.379-0.162-3.566 0.271-1.183 0.429-2.274 1.232-3.274 2.411v0l-8.301 9.791 1.91 1.619 5.469-6.451 0.04 0.033c-0.128 0.629-0.137 1.261-0.027 1.895 0.111 0.644 0.338 1.263 0.679 1.859 0.332 0.596 0.767 1.123 1.307 1.581v0c0.985 0.835 2.054 1.359 3.207 1.571 1.143 0.213 2.284 0.104 3.423-0.326 1.134-0.425 2.17-1.19 3.107-2.295v0c0.742-0.875 1.272-1.776 1.59-2.704 0.324-0.923 0.455-1.838 0.395-2.744-0.065-0.911-0.322-1.776-0.769-2.597-0.442-0.816-1.064-1.564-1.866-2.244zM60.911 239.639v0c0.65 0.551 1.106 1.208 1.368 1.971 0.263 0.773 0.308 1.585 0.135 2.437-0.179 0.848-0.608 1.673-1.287 2.474v0c-0.657 0.775-1.387 1.323-2.189 1.642-0.798 0.314-1.603 0.415-2.417 0.302-0.804-0.114-1.538-0.453-2.203-1.017v0c-0.65-0.551-1.103-1.21-1.362-1.979-0.268-0.767-0.308-1.575-0.119-2.424 0.188-0.858 0.621-1.688 1.301-2.49v0c0.666-0.786 1.403-1.336 2.21-1.651 0.802-0.319 1.606-0.412 2.411-0.279 0.796 0.134 1.513 0.472 2.152 1.014z" fill="black"></path><path d="M65.788 258.265l-2.092-1.374 5.445-8.292c0.679-1.033 1.5-1.652 2.465-1.857 0.966-0.195 1.966 0.046 2.999 0.725v0l2.386 1.566-1.177 1.791-2.006-1.318c-0.499-0.328-0.984-0.441-1.454-0.338-0.468 0.112-0.87 0.423-1.205 0.934v0z" fill="black"></path><path d="M83.464 267.937l-3.177-1.617c-1.353-0.688-2.426-1.555-3.22-2.598-0.794-1.044-1.248-2.18-1.362-3.41-0.114-1.229 0.145-2.465 0.777-3.708v0c0.626-1.23 1.438-2.204 2.435-2.922 0.994-0.727 2.081-1.145 3.262-1.253 1.177-0.118 2.353 0.123 3.528 0.721v0c1.279 0.651 2.204 1.469 2.775 2.452 0.564 0.981 0.822 2.041 0.774 3.18-0.057 1.142-0.379 2.289-0.964 3.439v0c-0.09 0.177-0.187 0.36-0.29 0.547-0.106 0.193-0.211 0.355-0.317 0.486v0l-9.217-4.692c-0.301 0.803-0.377 1.573-0.229 2.312 0.158 0.735 0.495 1.404 1.013 2.006 0.521 0.597 1.176 1.096 1.966 1.498v0l3.223 1.64zM79.253 256.974v0l7.051 3.589c0.156-0.306 0.289-0.651 0.399-1.034 0.113-0.374 0.173-0.771 0.179-1.192 0.009-0.412-0.054-0.817-0.19-1.218-0.126-0.403-0.348-0.786-0.664-1.147-0.308-0.365-0.731-0.684-1.269-0.958v0c-0.563-0.287-1.115-0.429-1.656-0.427-0.541 0.002-1.056 0.106-1.546 0.312-0.49 0.205-0.933 0.492-1.328 0.861-0.39 0.372-0.715 0.777-0.976 1.214z" fill="black"></path><path d="M97.204 273.23l-6.537-2.31 0.717-2.03 6.256 2.21c0.414 0.146 0.801 0.185 1.161 0.116 0.362-0.076 0.672-0.232 0.93-0.469 0.258-0.236 0.445-0.517 0.559-0.841v0c0.108-0.304 0.137-0.614 0.089-0.93-0.042-0.314-0.174-0.6-0.395-0.861-0.228-0.263-0.539-0.464-0.934-0.603v0l-2.633-0.93c-0.842-0.297-1.523-0.699-2.044-1.203-0.523-0.498-0.866-1.085-1.027-1.762-0.157-0.667-0.097-1.396 0.183-2.186v0c0.236-0.667 0.615-1.225 1.137-1.674 0.529-0.447 1.144-0.743 1.844-0.889 0.706-0.144 1.435-0.083 2.186 0.183v0l6.032 2.131-0.714 2.021-5.798-2.05c-0.531-0.188-1.006-0.173-1.425 0.043-0.428 0.22-0.719 0.551-0.875 0.991v0c-0.151 0.427-0.124 0.856 0.082 1.286 0.205 0.429 0.599 0.747 1.181 0.953v0l2.506 0.885c0.939 0.332 1.676 0.76 2.212 1.285 0.536 0.524 0.873 1.128 1.011 1.81 0.129 0.687 0.049 1.438-0.24 2.253v0c-0.247 0.699-0.647 1.294-1.198 1.784-0.558 0.487-1.208 0.811-1.95 0.972-0.741 0.16-1.514 0.099-2.316-0.185z" fill="black"></path><path d="M114.027 277.612l-6.778-1.46 0.454-2.105 6.485 1.397c0.43 0.093 0.818 0.082 1.166-0.033 0.349-0.121 0.637-0.316 0.864-0.583 0.226-0.267 0.376-0.569 0.448-0.905v0c0.068-0.316 0.058-0.627-0.031-0.934-0.082-0.306-0.249-0.573-0.501-0.803-0.259-0.231-0.594-0.391-1.004-0.48v0l-2.729-0.588c-0.873-0.188-1.6-0.499-2.18-0.933-0.582-0.428-0.997-0.966-1.243-1.617-0.241-0.642-0.273-1.373-0.097-2.192v0c0.149-0.692 0.454-1.293 0.916-1.805 0.468-0.51 1.04-0.882 1.716-1.116 0.682-0.232 1.413-0.265 2.191-0.097v0l6.254 1.348-0.451 2.095-6.012-1.296c-0.551-0.119-1.02-0.044-1.408 0.224-0.396 0.273-0.643 0.638-0.741 1.094v0c-0.095 0.443-0.014 0.865 0.244 1.264 0.258 0.4 0.689 0.665 1.293 0.796v0l2.598 0.559c0.973 0.21 1.759 0.541 2.358 0.993 0.598 0.452 1.009 1.008 1.232 1.667 0.215 0.665 0.232 1.42 0.049 2.266v0c-0.156 0.725-0.477 1.366-0.962 1.921-0.492 0.554-1.095 0.958-1.81 1.212-0.715 0.253-1.489 0.29-2.321 0.111z" fill="black"></path><path d="M143.04 280l-8.541-0.011 0.003-2.307 8.231 0.01c0.639 0.001 1.185-0.15 1.639-0.451 0.454-0.295 0.808-0.679 1.062-1.153 0.255-0.474 0.382-0.971 0.383-1.493v0c0.001-0.543-0.122-1.048-0.369-1.515-0.247-0.46-0.59-0.832-1.028-1.114-0.446-0.282-0.985-0.424-1.617-0.424v0l-3.595-0.004c-1.065-0.001-2.005-0.226-2.822-0.674-0.817-0.441-1.455-1.056-1.914-1.846-0.466-0.79-0.698-1.683-0.697-2.679v0c0.001-1.016 0.226-1.933 0.673-2.75 0.447-0.81 1.073-1.451 1.877-1.924 0.811-0.473 1.742-0.709 2.793-0.707v0l8.076 0.01-0.003 2.318-7.829-0.01c-0.604-0.001-1.133 0.139-1.587 0.42-0.454 0.274-0.797 0.634-1.031 1.081-0.234 0.446-0.351 0.923-0.352 1.431v0c-0.001 0.488 0.112 0.955 0.338 1.401 0.226 0.44 0.559 0.797 0.998 1.073 0.446 0.275 0.961 0.413 1.544 0.414v0l3.668 0.005c1.14 0.001 2.118 0.229 2.935 0.683 0.817 0.454 1.441 1.07 1.873 1.847 0.439 0.783 0.657 1.673 0.656 2.669v0c-0.001 1.106-0.226 2.088-0.674 2.945-0.447 0.858-1.08 1.534-1.898 2.027-0.811 0.487-1.742 0.729-2.792 0.728z" fill="black"></path><path d="M161.166 278.739v0c-1.244 0.176-2.389 0.074-3.435-0.305-1.051-0.371-1.917-0.974-2.596-1.807-0.674-0.841-1.097-1.874-1.271-3.097v0l-1.123-7.936 2.499-0.354 1.12 7.916c0.116 0.823 0.398 1.511 0.844 2.065 0.445 0.547 0.99 0.942 1.634 1.184 0.65 0.234 1.316 0.303 1.996 0.207v0c0.7-0.099 1.327-0.351 1.88-0.755 0.559-0.412 0.98-0.943 1.263-1.594 0.282-0.657 0.364-1.397 0.248-2.22v0l-1.12-7.915 2.499-0.354 1.122 7.936c0.173 1.224 0.049 2.334-0.371 3.33-0.429 0.99-1.093 1.809-1.994 2.457-0.893 0.653-1.958 1.068-3.195 1.242z" fill="black"></path><path d="M177.1 274.743l-2.373 0.799-2.661-7.908c-0.342-1.015-0.423-2.021-0.244-3.016 0.177-1.002 0.622-1.898 1.335-2.689 0.704-0.795 1.677-1.401 2.92-1.819v0c0.599-0.202 1.225-0.322 1.878-0.361 0.66-0.041 1.313 0.047 1.959 0.265 0.643 0.211 1.231 0.589 1.762 1.135v0l0.02-0.007c0.126-0.767 0.381-1.429 0.766-1.986 0.383-0.564 0.849-1.029 1.4-1.395 0.544-0.364 1.125-0.65 1.744-0.859v0c1.224-0.412 2.356-0.514 3.397-0.306 1.045 0.199 1.941 0.644 2.688 1.334 0.745 0.684 1.288 1.534 1.63 2.55v0l2.662 7.908-2.363 0.795-2.662-7.908c-0.221-0.657-0.577-1.197-1.067-1.619-0.492-0.429-1.051-0.711-1.677-0.849-0.63-0.128-1.277-0.081-1.941 0.143v0c-0.657 0.221-1.207 0.58-1.648 1.076-0.446 0.505-0.74 1.075-0.881 1.71-0.137 0.626-0.095 1.268 0.126 1.925v0l2.661 7.908-2.372 0.799-2.662-7.909c-0.221-0.657-0.579-1.193-1.073-1.606-0.496-0.42-1.068-0.698-1.716-0.835-0.645-0.131-1.303-0.083-1.974 0.142v0c-0.651 0.219-1.188 0.57-1.613 1.054-0.416 0.488-0.69 1.051-0.822 1.69-0.128 0.63-0.082 1.274 0.139 1.931v0z" fill="black"></path><path d="M204.891 263.461l-2.141 1.298-4.325-7.136c-0.555-0.916-0.854-1.88-0.896-2.89-0.046-1.016 0.193-1.988 0.715-2.915 0.513-0.929 1.33-1.734 2.452-2.414v0c0.54-0.327 1.125-0.582 1.755-0.762 0.635-0.184 1.292-0.241 1.969-0.17 0.674 0.065 1.33 0.306 1.968 0.723v0l0.017-0.011c-0.045-0.776 0.06-1.478 0.314-2.105 0.25-0.634 0.604-1.189 1.062-1.667 0.451-0.474 0.956-0.881 1.514-1.219v0c1.104-0.669 2.187-1.016 3.248-1.041 1.063-0.034 2.035 0.204 2.914 0.715 0.876 0.505 1.592 1.216 2.148 2.132v0l4.325 7.136-2.132 1.292-4.325-7.136c-0.36-0.593-0.824-1.042-1.395-1.347-0.574-0.311-1.181-0.465-1.822-0.462-0.643 0.012-1.264 0.2-1.863 0.563v0c-0.593 0.36-1.051 0.83-1.373 1.411-0.325 0.59-0.487 1.211-0.487 1.86 0.003 0.641 0.184 1.258 0.544 1.851v0l4.325 7.136-2.141 1.298-4.325-7.136c-0.36-0.593-0.826-1.038-1.398-1.333-0.576-0.301-1.195-0.448-1.857-0.441-0.658 0.014-1.29 0.204-1.895 0.571v0c-0.587 0.356-1.035 0.816-1.344 1.38-0.299 0.567-0.444 1.176-0.433 1.829 0.012 0.643 0.198 1.261 0.557 1.854v0z" fill="black"></path><path d="M232.123 244.693v0c-0.994 0.897-2.072 1.435-3.234 1.614-1.157 0.174-2.301 0.028-3.435-0.439-1.128-0.471-2.141-1.204-3.038-2.198v0c-0.911-1.01-1.52-2.115-1.828-3.318-0.298-1.202-0.261-2.406 0.112-3.612 0.373-1.206 1.126-2.32 2.258-3.342v0c1.091-0.985 2.241-1.592 3.448-1.821 1.203-0.235 2.38-0.14 3.531 0.283 1.155 0.429 2.181 1.14 3.078 2.135v0l4.7 5.208-1.874 1.691-1.898-2.103-0.038 0.034c0.15 0.577 0.216 1.198 0.196 1.863-0.02 0.665-0.183 1.345-0.491 2.039-0.303 0.69-0.798 1.345-1.487 1.966zM231.17 242.653v0c0.673-0.607 1.118-1.309 1.333-2.105 0.226-0.796 0.219-1.618-0.019-2.467-0.244-0.844-0.692-1.628-1.345-2.352v0c-0.644-0.714-1.359-1.23-2.146-1.547-0.786-0.318-1.584-0.412-2.392-0.283-0.804 0.134-1.551 0.511-2.239 1.132v0c-0.729 0.658-1.199 1.388-1.411 2.189-0.216 0.806-0.205 1.618 0.036 2.438 0.24 0.82 0.689 1.594 1.346 2.323v0c0.63 0.699 1.338 1.211 2.124 1.539 0.78 0.332 1.58 0.434 2.399 0.305 0.814-0.124 1.585-0.514 2.314-1.172z" fill="black"></path><path d="M244.011 232.165l-1.638 1.893-7.501-6.492c-0.935-0.809-1.44-1.705-1.516-2.688-0.066-0.984 0.305-1.943 1.114-2.877v0l1.867-2.158 1.621 1.402-1.571 1.815c-0.391 0.452-0.567 0.917-0.527 1.397 0.049 0.478 0.305 0.918 0.767 1.317v0z" fill="black"></path><path d="M251.335 222.877l-1.508 2.025-11.12-8.283 1.507-2.024zM237.702 214.278v0c-0.271 0.364-0.642 0.58-1.113 0.649-0.471 0.069-0.888-0.032-1.252-0.303v0c-0.364-0.271-0.577-0.64-0.64-1.107-0.069-0.471 0.032-0.888 0.303-1.251v0c0.271-0.364 0.642-0.58 1.112-0.649 0.461-0.067 0.874 0.034 1.238 0.305v0c0.364 0.271 0.582 0.639 0.654 1.104 0.069 0.471-0.032 0.888-0.302 1.252z" fill="black"></path><path d="M260.351 208.424l-4.222 7.006c-0.301 0.5-0.687 0.873-1.155 1.12-0.463 0.25-0.959 0.368-1.489 0.354-0.535-0.018-1.034-0.166-1.499-0.446v0c-0.494-0.298-0.86-0.682-1.096-1.155-0.241-0.466-0.375-1.028-0.404-1.686v0l-0.17-7.56c0.001-0.32-0.047-0.554-0.144-0.7-0.099-0.156-0.227-0.281-0.386-0.377v0c-0.182-0.11-0.402-0.138-0.659-0.084-0.257 0.054-0.462 0.207-0.614 0.46v0l-3.632 6.026-1.835-1.106 4.025-6.679c0.291-0.482 0.666-0.846 1.126-1.09 0.462-0.235 0.959-0.348 1.492-0.34 0.535 0.018 1.034 0.166 1.499 0.447v0c0.482 0.291 0.848 0.675 1.097 1.154 0.249 0.479 0.386 1.03 0.41 1.654v0l0.174 7.574c-0.003 0.311 0.045 0.544 0.144 0.7 0.099 0.156 0.224 0.28 0.377 0.372v0c0.188 0.113 0.411 0.143 0.668 0.09 0.255-0.063 0.462-0.227 0.621-0.492v0l3.828-6.353z" fill="black"></path><path d="M267.561 192.627l-1.428 3.266c-0.608 1.391-1.41 2.513-2.406 3.367-0.996 0.854-2.104 1.374-3.324 1.559-1.221 0.186-2.47-0.001-3.747-0.559v0c-1.265-0.553-2.285-1.306-3.06-2.26-0.784-0.95-1.264-2.011-1.441-3.183-0.186-1.168-0.015-2.357 0.513-3.564v0c0.575-1.315 1.337-2.286 2.286-2.913 0.946-0.621 1.989-0.94 3.129-0.959 1.144-0.01 2.307 0.244 3.49 0.761v0c0.182 0.08 0.37 0.166 0.562 0.257 0.199 0.094 0.367 0.19 0.504 0.288v0l-4.144 9.476c0.819 0.253 1.592 0.284 2.32 0.093 0.725-0.2 1.373-0.577 1.944-1.128 0.565-0.555 1.025-1.238 1.38-2.05v0l1.449-3.313zM256.863 197.472v0l3.17-7.248c-0.315-0.138-0.666-0.25-1.055-0.338-0.38-0.091-0.78-0.128-1.201-0.109-0.411 0.015-0.813 0.102-1.204 0.26-0.395 0.149-0.764 0.393-1.107 0.73-0.346 0.328-0.64 0.769-0.882 1.324v0c-0.253 0.579-0.363 1.138-0.329 1.677 0.034 0.54 0.168 1.048 0.402 1.525 0.234 0.477 0.546 0.902 0.937 1.276 0.394 0.367 0.817 0.668 1.269 0.903z" fill="black"></path><path d="M270.886 182.898l-0.74 2.392-9.477-2.933c-1.181-0.365-2.003-0.983-2.468-1.853-0.456-0.874-0.501-1.902-0.135-3.083v0l0.844-2.726 2.047 0.634-0.71 2.293c-0.177 0.571-0.151 1.068 0.078 1.49 0.237 0.418 0.648 0.718 1.232 0.899v0z" fill="black"></path></g></svg></g></svg></g></svg></g><g></g></svg></g><defs><mask></mask></defs></svg><rect width="280" height="280" fill="black" stroke="none" visibility="hidden"></rect></g></mask><linearGradient x1="0" x2="1" y1="0.5" y2="0.5" id="80534c38-0aea-4ff1-a1e3-bb9fe295d0d3"><stop stop-color="#ffa62e" offset="0"></stop><stop stop-color="#f71b3d" offset="1"></stop></linearGradient><rect width="280" height="280.000003086398" fill="url(#80534c38-0aea-4ff1-a1e3-bb9fe295d0d3)" mask="url(#53c59ddd-74b5-4649-b306-3db812543646)" data-fill-palette-color="accent"></rect></svg><rect width="280" height="280" fill="none" stroke="none" visibility="hidden"></rect></g></svg></g></svg>